# xmcd
#
# Track frame offsets: 
#        150
#        14529
#        29656
#        45418
#        62340
#        79092
#        99153
#        116894
#        131121
#        147095
#        162777
#        177744
#        195286
#        210961
#        223216
#
# Disc length: 3096 seconds
#
# Revision: 0
# Processed by: cddbd v1.5.2PL0 Copyright (c) Steve Scherf et al.
# Submitted via: ExactAudioCopyFreeDBPlugin 1.0
#
DISCID=cf0c160f
DTITLE=The Bedbreakers - Widetrack Town
DYEAR=1998
DGENRE=Blues
TTITLE0=Widetrack Town
TTITLE1=One Pair of Pants
TTITLE2=Believe You Me
TTITLE3=Who Will Be Next?
TTITLE4=Muleskinner Blues
TTITLE5=Your "Maybe's"
TTITLE6=Barbeque Party
TTITLE7=Hurry Back, Good News
TTITLE8=Tin Shack
TTITLE9=I Can't Be Satisfied
TTITLE10=Smokin' and Drinkin'
TTITLE11=Too Young to Die
TTITLE12=How Many Times?
TTITLE13=I Don't Play
TTITLE14=T.B. Boogie
EXTD=
EXTT0=
EXTT1=
EXTT2=
EXTT3=
EXTT4=
EXTT5=
EXTT6=
EXTT7=
EXTT8=
EXTT9=
EXTT10=
EXTT11=
EXTT12=
EXTT13=
EXTT14=
PLAYORDER=
